<?xml version="1.0" encoding="utf-8"?>
<svg viewBox="0 0 36 36" xmlns="http://www.w3.org/2000/svg">
  <path fill="#77B255" d="M 6.828 29.61 C 6.514 29.819 6.234 30.063 5.992 30.313 C 5.955 29.082 5.66 27.489 4.028 26.709 C 3.705 24.952 -0.061 25.845 0.276 26.015 C 0.947 26.355 1.304 27.219 1.736 27.673 C 2.506 28.483 3.362 28.533 3.788 27.899 C 4.794 28.553 4.86 29.793 4.83 31.119 C 4.826 31.266 4.823 31.402 4.823 31.526 L 4.823 35.588 C 4.823 35.908 5.983 35.908 5.983 35.588 L 5.983 32.254 C 6.141 31.977 6.599 31.237 7.269 30.718 C 7.729 31.122 8.47 30.993 9.144 30.284 C 9.576 29.83 9.809 28.966 10.48 28.626 C 10.835 28.447 6.766 27.468 6.828 29.61 Z" style=""/>
  <g style="" transform="matrix(0.273764, 0, 0, 0.273764, 22.086237, 8.74559)">
    <g>
      <path fill="#F4ABBA" d="M 31.298 20.807 C 35.495 19.444 36.325 17.625 35.489 14.391 C 34.537 14.699 33.384 14.39 33.217 13.873 C 33.049 13.36 33.798 12.43 34.75 12.12 C 33.527 9.013 31.786 8.031 27.589 9.393 C 25.983 9.915 24.351 10.885 22.934 12.028 C 23.582 10.327 24 8.475 24 6.786 C 24 2.374 22.527 1.021 19.193 0.818 C 19.193 1.818 18.541 2.818 18 2.818 C 17.459 2.818 16.806 1.818 16.806 0.818 C 13.472 1.021 12 2.374 12 6.786 C 12 8.475 12.417 10.327 13.066 12.027 C 11.65 10.885 10.017 9.916 8.411 9.394 C 4.214 8.03 2.473 9.013 1.249 12.121 C 2.2 12.431 2.95 13.359 2.783 13.874 C 2.616 14.389 1.463 14.7 0.512 14.392 C -0.325 17.625 0.507 19.444 4.702 20.807 C 6.308 21.328 8.199 21.504 10.016 21.412 C 8.492 22.406 7.066 23.659 6.073 25.025 C 3.479 28.595 3.876 30.555 6.454 32.679 C 7.042 31.87 8.157 31.444 8.596 31.762 C 9.034 32.079 8.974 33.273 8.386 34.082 C 11.202 35.877 13.189 35.647 15.782 32.079 C 16.775 30.713 17.525 28.968 18 27.212 C 18.475 28.969 19.226 30.713 20.218 32.079 C 22.812 35.649 24.798 35.877 27.615 34.082 C 27.028 33.272 26.966 32.08 27.405 31.761 C 27.842 31.444 28.958 31.868 29.547 32.678 C 32.124 30.555 32.52 28.595 29.928 25.025 C 28.935 23.659 27.508 22.406 25.985 21.412 C 27.801 21.504 29.691 21.328 31.298 20.807 Z M 18 20.337 C 17.838 20.045 17.647 19.799 17.412 19.628 C 17.178 19.457 16.884 19.352 16.556 19.287 C 16.784 19.043 16.959 18.785 17.049 18.509 C 17.139 18.234 17.149 17.922 17.108 17.59 C 17.41 17.731 17.71 17.818 18 17.818 C 18.29 17.818 18.59 17.731 18.894 17.589 C 18.853 17.921 18.863 18.233 18.953 18.508 C 19.043 18.784 19.218 19.042 19.445 19.286 C 19.118 19.351 18.824 19.456 18.59 19.627 C 18.354 19.799 18.162 20.045 18 20.337 Z"/>
      <g fill="#FFF">
        <path d="M16.795 18.685c-.12.54-.653.88-1.193.76l-5.858-1.302c-.539-.12-.879-.653-.759-1.193.12-.539.654-.879 1.193-.759l5.857 1.302c.54.12.88.653.76 1.192zm.976.218c.12-.54.654-.88 1.193-.76l5.857 1.302c.54.12.879.653.76 1.193-.12.538-.654.879-1.193.759l-5.857-1.302c-.54-.118-.88-.654-.76-1.192z"/>
        <path d="M17.771 18.903c-.466.296-1.083.159-1.38-.308l-3.221-5.061c-.296-.466-.16-1.084.307-1.38.466-.297 1.084-.159 1.38.307l3.222 5.062c.295.466.158 1.083-.308 1.38zm.797 1.252c.466-.296 1.084-.159 1.38.307l3.223 5.062c.296.467.159 1.083-.308 1.381-.466.296-1.084.159-1.381-.307l-3.221-5.062c-.296-.466-.157-1.084.307-1.381z"/>
        <path d="M17.988 17.927c-.539-.12-.879-.654-.759-1.193l1.302-5.857c.119-.539.652-.879 1.192-.759.54.12.879.654.759 1.193l-1.301 5.857c-.119.538-.654.879-1.193.759zm-.217.976c.539.119.879.653.759 1.192l-1.3 5.857c-.121.54-.654.88-1.194.76-.538-.12-.878-.654-.76-1.193l1.303-5.857c.119-.539.653-.879 1.192-.759z"/>
        <path d="M17.771 18.902c-.297-.466-.159-1.083.307-1.38l5.062-3.221c.466-.296 1.084-.16 1.38.307.297.466.159 1.083-.307 1.38l-5.062 3.221c-.466.297-1.084.16-1.38-.307z"/>
        <path d="M17.771 18.902c.296.467.159 1.084-.307 1.381l-5.062 3.222c-.466.296-1.083.16-1.381-.308-.296-.465-.159-1.083.307-1.38l5.062-3.222c.467-.296 1.085-.158 1.381.307z"/>
      </g>
      <path d="M 22.012 25.566 C 22.944 24.974 24.18 25.249 24.774 26.18 C 25.367 27.112 25.092 28.348 24.16 28.942 C 23.228 29.535 21.992 29.26 21.398 28.328 C 20.806 27.396 21.08 26.16 22.012 25.566 Z M 14.55 13.841 C 13.618 14.434 12.382 14.16 11.789 13.228 C 11.196 12.296 11.471 11.06 12.403 10.467 C 13.335 9.874 14.571 10.149 15.164 11.08 C 15.757 12.012 15.482 13.248 14.55 13.841 Z M 16.47 24.759 C 17.548 25 18.228 26.069 17.99 27.147 C 17.75 28.225 16.682 28.905 15.603 28.666 C 14.524 28.426 13.845 27.357 14.084 26.279 C 14.323 25.2 15.392 24.521 16.47 24.759 Z M 19.507 11.094 C 18.429 10.855 17.749 9.786 17.989 8.708 C 18.228 7.63 19.297 6.95 20.375 7.189 C 21.453 7.429 22.134 8.497 21.894 9.575 C 21.653 10.654 20.585 11.333 19.507 11.094 Z M 13.494 21.624 C 14.086 22.557 13.811 23.793 12.88 24.387 C 11.948 24.98 10.712 24.705 10.118 23.772 C 9.525 22.841 9.8 21.605 10.731 21.011 C 11.664 20.419 12.9 20.693 13.494 21.624 Z M 22.833 15.681 C 22.24 14.749 22.516 13.513 23.447 12.92 C 24.379 12.327 25.615 12.602 26.208 13.534 C 26.801 14.466 26.525 15.702 25.595 16.295 C 24.662 16.888 23.426 16.613 22.833 15.681 Z M 23.628 20.205 C 23.868 19.126 24.937 18.446 26.015 18.685 C 27.093 18.925 27.773 19.994 27.534 21.072 C 27.294 22.15 26.225 22.83 25.147 22.59 C 24.068 22.352 23.389 21.283 23.628 20.205 Z M 10.938 17.384 C 10.698 18.463 9.63 19.142 8.552 18.903 C 7.474 18.663 6.794 17.594 7.033 16.516 C 7.272 15.438 8.341 14.758 9.419 14.997 C 10.498 15.238 11.177 16.306 10.938 17.384 Z" fill="#EA596E"/>
      <circle fill="#FFCC4D" cx="18" cy="18.818" r="4"/>
    </g>
  </g>
  <g transform="matrix(0.287154, 0, 0, 0.287154, 25.16717, 25.361134)" style="">
    <path fill="#99AAB5" d="M 2.75 19.333 L 5 16 L 8 19 L 12 17 L 15 20 L 19 14 L 23 17 L 26 16 L 28 19 L 31 16 L 33 20 L 31 27 L 20 32 L 9 30 L 3 24 Z"/>
    <path fill="#FFCC4D" d="M 29.956 14.712 C 29.977 14.425 30 14.138 30 13.846 C 30 7.903 25.676 2.982 20.004 2.027 C 21.193 1.767 22.035 1.518 21 1 C 19.885 0.442 18.77 1.129 18.001 1.846 L 17.999 1.846 C 17.23 1.129 16.116 0.442 15 1 C 13.965 1.518 14.807 1.767 15.996 2.026 C 10.325 2.981 6 7.902 6 13.846 C 6 14.138 6.023 14.425 6.044 14.713 C 5.562 21.313 -0.259 31 18 31 C 36.259 31 30.438 21.313 29.956 14.712 Z"/>
    <path fill="#F4900C" d="M 21 14 C 21 15.657 19.657 16 18 16 C 16.343 16 15 15.657 15 14 C 15 12.343 16.343 11 18 11 C 19.657 11 21 12.343 21 14 Z"/>
    <circle fill="#662113" cx="11.5" cy="11.5" r="1.5"/>
    <circle fill="#662113" cx="24.5" cy="11.5" r="1.5"/>
    <path fill="#E1E8ED" d="M 31 25 L 28 24 L 24 30 L 21 25 L 19 27 L 15 25 L 12 29 L 9 23 L 6 25 L 2.706 17.235 C 2.249 18.584 2 20.016 2 21.5 C 2 29.509 9.164 36 18 36 C 26.836 36 34 29.509 34 21.5 C 34 20.256 33.809 19.056 33.483 17.903 L 31 25 Z"/>
  </g>
  <path fill="#77B255" d="M 14.187 34.017 C 13.967 33.822 13.481 33.673 13.113 33.612 C 13.481 33.551 13.967 33.401 14.187 33.206 C 14.4 33.019 14.501 32.895 14.414 32.708 C 14.354 32.579 14.112 32.567 13.974 32.444 C 13.835 32.322 13.821 32.109 13.675 32.056 C 13.463 31.979 13.323 32.068 13.11 32.256 C 12.889 32.451 12.72 32.879 12.651 33.204 C 12.582 32.879 12.412 32.451 12.191 32.255 C 11.978 32.068 11.838 31.979 11.626 32.056 C 11.48 32.109 11.466 32.322 11.327 32.444 C 11.189 32.566 10.947 32.579 10.888 32.708 C 10.801 32.895 10.901 33.019 11.113 33.206 C 11.335 33.401 11.82 33.551 12.189 33.612 C 11.82 33.673 11.335 33.822 11.113 34.017 C 10.901 34.205 10.801 34.328 10.888 34.516 C 10.947 34.645 11.189 34.657 11.328 34.779 C 11.466 34.901 11.48 35.115 11.626 35.167 C 11.838 35.244 11.979 35.155 12.191 34.968 C 12.365 34.814 12.508 34.515 12.594 34.235 C 12.566 34.714 12.65 35.354 13.001 35.742 C 13.143 35.898 13.255 35.8 13.299 35.762 C 13.343 35.723 13.468 35.612 13.319 35.464 C 12.905 35.053 12.762 34.627 12.724 34.287 C 12.811 34.551 12.947 34.823 13.11 34.968 C 13.323 35.155 13.463 35.244 13.675 35.167 C 13.822 35.114 13.835 34.901 13.974 34.779 C 14.112 34.657 14.354 34.645 14.414 34.515 C 14.501 34.328 14.4 34.204 14.187 34.017 Z" style=""/>
  <g style="" transform="matrix(0.374134, 0, 0, 0.374134, 13.781674, 22.902014)">
    <path fill="#FFCC4D" d="M 21.388 0.62 C 19.536 0.62 17.153 2.469 15.168 5.446 C 12.846 8.929 14.099 11.435 15.106 13.448 C 15.261 13.758 15.565 13.965 15.911 13.997 C 15.94 13.998 15.97 14 16 14 C 16.313 14 16.61 13.853 16.8 13.6 C 19.194 10.407 23.011 5.404 23.707 4.707 C 23.895 4.52 24 4.265 24 4 C 24 1.508 22.65 0.62 21.388 0.62 Z M 23.766 9.615 C 22.556 9.615 21.191 10.747 19.201 13.4 C 17.077 16.231 16.74 18.713 18.106 21.447 C 18.257 21.749 18.55 21.954 18.885 21.993 C 18.923 21.998 18.962 22 19 22 C 19.295 22 19.577 21.869 19.769 21.641 C 21.488 19.578 24.942 15.473 25.707 14.707 C 25.895 14.519 26 14.265 26 14 C 26 12.915 26 9.615 23.766 9.615 Z"/>
    <path fill="#77B255" d="M 29.874 11.517 C 29.606 11.035 28.996 10.863 28.515 11.132 C 21.344 15.115 14.732 25.282 12.148 30.741 C 12.986 20.546 17.717 10.697 25.707 2.707 C 26.098 2.316 26.098 1.684 25.707 1.293 C 25.316 0.902 24.684 0.902 24.293 1.293 C 16.33 9.256 11.466 19.01 10.288 29.174 C 9.614 23.477 9.31 15.264 11.913 9.406 C 12.138 8.901 11.91 8.31 11.406 8.086 C 10.901 7.86 10.31 8.089 10.086 8.593 C 8.76 11.576 8.141 15.094 7.924 18.602 C 7.04 16.718 6.001 15 4.472 15 L 4.426 15 C 3.516 15 2.735 15.466 2.105 16.726 C 1.858 17.22 2.058 17.648 2.552 17.895 C 3.047 18.143 3.647 17.941 3.894 17.448 C 4.205 16.826 4.419 16.678 4.415 16.656 C 5.051 16.852 6.159 19.352 6.577 20.298 C 6.773 20.741 6.951 21.14 7.104 21.448 C 7.252 21.744 7.529 21.926 7.832 21.977 C 7.858 26.934 8.53 31.507 8.995 34.068 L 9.015 34.178 C 9.103 34.661 9.524 35 9.999 35 C 10.058 35 10.118 34.995 10.178 34.984 C 10.3 34.961 10.409 34.913 10.509 34.852 C 10.656 34.938 10.817 35 11 35 C 11.183 35 11.344 34.938 11.492 34.853 C 11.636 34.938 11.794 35 11.974 35 L 12 35 C 12.53 35 12.971 34.552 13 34.02 C 13.057 32.983 15.494 28.006 19.143 22.977 C 19.247 22.962 19.35 22.944 19.448 22.895 C 19.692 22.773 19.965 22.623 20.256 22.462 C 21.19 21.945 22.75 21.082 23.362 21.442 C 23.511 21.53 24 21.977 24 24 C 24 24.553 24.447 25 25 25 C 25.553 25 26 24.553 26 24 C 26 21.764 25.47 20.364 24.378 19.72 C 23.595 19.259 22.71 19.296 21.838 19.546 C 24.158 16.832 26.776 14.381 29.485 12.876 C 29.969 12.607 30.143 12 29.874 11.517 Z"/>
  </g>
  <g style="" transform="matrix(0.382122, 0, 0, 0.382122, 1.563919, 1.834987)">
    <path fill="#F4900C" d="M 18 35.8 C 17.61 35.8 17.255 35.582 17.079 35.235 L 15.279 31.681 L 12.255 34.277 C 12.064 34.438 11.825 34.524 11.583 34.524 C 11.45 34.524 11.316 34.499 11.189 34.446 C 10.83 34.298 10.583 33.959 10.555 33.573 L 10.251 29.597 L 6.463 30.838 C 6.358 30.872 6.25 30.889 6.142 30.889 C 5.872 30.889 5.61 30.783 5.412 30.586 C 5.138 30.313 5.041 29.905 5.162 29.535 L 6.402 25.747 L 2.43 25.446 C 2.043 25.415 1.704 25.171 1.555 24.812 C 1.407 24.451 1.472 24.04 1.725 23.745 L 4.319 20.721 L 0.765 18.921 C 0.418 18.745 0.2 18.388 0.2 18 C 0.2 17.612 0.418 17.255 0.765 17.079 L 4.319 15.279 L 1.725 12.255 C 1.473 11.96 1.407 11.547 1.555 11.189 C 1.704 10.83 2.042 10.583 2.43 10.555 L 6.402 10.251 L 5.162 6.463 C 5.041 6.093 5.138 5.688 5.412 5.412 C 5.61 5.216 5.872 5.111 6.142 5.111 C 6.25 5.111 6.358 5.128 6.463 5.162 L 10.251 6.402 L 10.555 2.43 C 10.584 2.042 10.83 1.704 11.189 1.555 C 11.316 1.503 11.45 1.477 11.583 1.477 C 11.825 1.477 12.064 1.561 12.255 1.725 L 15.279 4.319 L 17.079 0.765 C 17.255 0.418 17.61 0.2 18 0.2 C 18.388 0.2 18.745 0.418 18.92 0.765 L 20.722 4.319 L 23.746 1.725 C 23.936 1.561 24.177 1.477 24.417 1.477 C 24.552 1.477 24.685 1.503 24.813 1.555 C 25.171 1.704 25.416 2.042 25.447 2.43 L 25.75 6.402 L 29.535 5.162 C 29.64 5.127 29.75 5.111 29.856 5.111 C 30.126 5.111 30.39 5.216 30.585 5.412 C 30.861 5.688 30.958 6.094 30.837 6.463 L 29.596 10.251 L 33.572 10.555 C 33.958 10.584 34.297 10.83 34.445 11.189 C 34.593 11.547 34.529 11.96 34.276 12.255 L 31.68 15.279 L 35.234 17.079 C 35.582 17.256 35.8 17.612 35.8 18 C 35.8 18.388 35.582 18.744 35.235 18.921 L 31.681 20.721 L 34.277 23.745 C 34.53 24.04 34.594 24.451 34.446 24.812 C 34.298 25.17 33.959 25.415 33.57 25.446 L 29.597 25.747 L 30.838 29.535 C 30.959 29.906 30.862 30.312 30.586 30.586 C 30.391 30.783 30.126 30.889 29.857 30.889 C 29.751 30.889 29.641 30.872 29.536 30.838 L 25.751 29.597 L 25.448 33.57 C 25.417 33.959 25.173 34.298 24.814 34.446 C 24.685 34.499 24.552 34.524 24.418 34.524 C 24.178 34.524 23.938 34.438 23.747 34.277 L 20.723 31.681 L 18.921 35.235 C 18.745 35.582 18.388 35.8 18 35.8 Z"/>
    <path fill="#FFCC4D" d="M 31 18 C 31 25.179 25.179 31 18 31 C 10.821 31 5 25.18 5 18 C 5 10.82 10.821 5 18 5 C 25.179 5 31 10.821 31 18"/>
    <path d="M 18 23.471 C 11.778 23.471 10 21.143 10 22.243 C 10 23.345 13.556 26.223 18 26.223 C 22.444 26.223 26 23.344 26 22.243 C 26 21.143 24.223 23.471 18 23.471 M 26 14.667 C 26 16.14 24.806 17.334 23.333 17.334 C 21.861 17.334 20.667 16.14 20.667 14.667 C 20.667 13.194 21.861 12 23.333 12 C 24.806 12 26 13.193 26 14.667 M 15.333 14.667 C 15.333 16.14 14.138 17.334 12.666 17.334 C 11.194 17.334 9.999 16.14 9.999 14.667 C 9.999 13.194 11.195 12 12.667 12 C 14.139 12 15.333 13.193 15.333 14.667" fill="#F4900C"/>
  </g>
</svg>