<?xml version="1.0" encoding="utf-8"?>
<svg viewBox="0 0 36 36" xmlns="http://www.w3.org/2000/svg">
  <g style="" transform="matrix(0.404015, 0, 0, 0.404015, 20.788412, 10.840878)">
    <circle fill="#E1E8ED" cx="18" cy="26" r="10"/>
    <path fill="#E1E8ED" d="M 12 11 C 12 7.686 14.686 5 18 5 C 21.313 5 24 7.686 24 11 C 24 14.314 21.313 17 18 17 C 14.686 17 12 14.314 12 11 Z"/>
    <path fill="#414042" d="M 23 6 C 23 7.104 22.104 8 21 8 L 15 8 C 13.896 8 13 7.104 13 6 L 13 2 C 13 0.896 13.896 0 15 0 L 21 0 C 22.104 0 23 0.896 23 2 L 23 6 Z"/>
    <path fill="#231F20" d="M 25 7 C 25 7.552 24.553 8 24 8 L 12 8 C 11.448 8 11 7.552 11 7 C 11 6.448 11.448 6 12 6 L 24 6 C 24.553 6 25 6.448 25 7 Z"/>
    <path fill="#DD2E44" d="M 22.5 15 L 13.5 15 C 12.671 15 12 15.671 12 16.5 C 12 17.152 12.419 17.702 13 17.908 L 13 25 C 13 25.553 13.448 26 14 26 L 15 26 C 15.552 26 16 25.553 16 25 L 16 18 L 22.5 18 C 23.328 18 24 17.329 24 16.5 C 24 15.671 23.328 15 22.5 15 Z"/>
    <path fill="#414042" d="M 19 24 C 19 24.553 18.553 25 18 25 C 17.448 25 17 24.553 17 24 C 17 23.447 17.448 23 18 23 C 18.553 23 19 23.447 19 24 Z M 19 29 C 19 29.553 18.553 30 18 30 C 17.448 30 17 29.553 17 29 C 17 28.447 17.448 28 18 28 C 18.553 28 19 28.447 19 29 Z"/>
    <path fill="#F4900C" d="M 19 12 C 19 12.553 18.553 13 18 13 C 17.448 13 17 12.553 17 12 C 17 11.447 17.448 11 18 11 C 18.553 11 19 11.447 19 12 Z"/>
    <path fill="#414042" d="M 16 10 C 16 10.553 15.552 11 15 11 C 14.448 11 14 10.553 14 10 C 14 9.447 14.448 9 15 9 C 15.552 9 16 9.447 16 10 Z M 22 10 C 22 10.553 21.553 11 21 11 C 20.447 11 20 10.553 20 10 C 20 9.447 20.447 9 21 9 C 21.553 9 22 9.447 22 10 Z"/>
    <path fill="#FFAC33" d="M 10.394 20.081 L 6.942 18.602 L 6.395 15.736 C 6.291 15.194 5.771 14.839 5.225 14.941 C 4.683 15.045 4.327 15.568 4.43 16.111 L 4.724 17.651 L 3.394 17.081 C 2.886 16.862 2.298 17.099 2.081 17.606 C 1.863 18.114 2.099 18.702 2.606 18.919 L 3.349 19.237 L 2.293 20.293 C 1.902 20.684 1.902 21.316 2.293 21.707 C 2.488 21.902 2.744 22 3 22 C 3.256 22 3.512 21.902 3.707 21.707 L 5.328 20.086 L 9.606 21.919 C 9.734 21.975 9.868 22 10 22 C 10.388 22 10.757 21.773 10.919 21.394 C 11.137 20.886 10.901 20.299 10.394 20.081 Z M 33.316 17.051 L 31.851 16.563 L 32.706 15.708 C 33.097 15.317 33.097 14.685 32.706 14.294 C 32.315 13.903 31.683 13.903 31.292 14.294 L 30.541 15.045 L 29.969 12.758 C 29.835 12.223 29.291 11.893 28.757 12.031 C 28.221 12.165 27.895 12.708 28.03 13.244 L 28.892 16.694 L 25.292 20.294 C 24.901 20.685 24.901 21.317 25.292 21.708 C 25.488 21.902 25.744 22 26 22 C 26.256 22 26.512 21.902 26.707 21.707 L 30.27 18.144 L 32.683 18.949 C 32.789 18.984 32.896 19 33 19 C 33.419 19 33.809 18.735 33.948 18.316 C 34.123 17.792 33.84 17.226 33.316 17.051 Z"/>
  </g>
  <g style="" transform="matrix(0.381358, 0, 0, 0.381358, 4.702556, 19.581762)">
    <path fill="#E1E8ED" d="M 36 13.062 L 36 32 C 36 32 36 36 32 36 L 4 36 C 0 36 0 32 0 32 L 0 27.062 C 0 27.062 17 17.062 36 13.062 Z"/>
    <path fill="#8899A7" d="M 14.751 24.46 C 14.918 24.637 14.891 24.933 14.689 25.122 C 14.488 25.311 14.189 25.322 14.023 25.145 L 7.376 18.093 C 7.209 17.916 7.237 17.619 7.438 17.429 C 7.639 17.24 7.937 17.23 8.104 17.407 L 14.751 24.46 Z"/>
    <path fill="#AA8ED6" d="M 26.812 17.809 C 27.247 18.325 26.898 19.11 26.035 19.565 L 6.571 29.783 C 4.759 30.659 1.675 29.743 1.3 28.993 C 0.884 28.161 2.493 27.883 3.357 27.43 L 23.679 16.76 C 24.542 16.307 25.593 16.359 26.028 16.873 L 26.812 17.809 Z"/>
    <path fill="#1C6399" d="M 13.562 21.828 C 13.328 22.469 12.484 22.889 11.937 23.296 C 11.39 23.703 11.296 24.062 11.296 24.5 C 11.296 24.938 11.624 25.547 12.952 25.5 C 14.28 25.453 15.077 24.797 15.343 24.531 C 15.609 24.265 15.874 24.156 15.89 24.203 C 15.906 24.25 16.749 23.831 16.828 23.587 C 16.906 23.344 16.875 22.297 16.609 21.734 C 16.343 21.171 13.562 21.828 13.562 21.828 Z"/>
    <path fill="#AA8ED6" d="M 31.825 22.344 C 32.26 22.86 31.911 23.645 31.048 24.1 L 11.583 34.318 C 9.771 35.194 6.687 34.278 6.312 33.528 C 5.896 32.696 7.505 32.418 8.369 31.965 L 28.691 21.295 C 29.554 20.842 30.605 20.895 31.04 21.408 L 31.825 22.344 Z"/>
    <path fill="#1C6399" d="M 19.344 26 C 19.11 26.641 18.266 27.061 17.719 27.468 C 17.172 27.875 17.078 28.234 17.078 28.672 C 17.078 29.11 17.406 29.719 18.734 29.672 C 20.062 29.625 20.859 28.969 21.125 28.703 C 21.391 28.437 21.656 28.328 21.672 28.375 C 21.688 28.422 22.531 28.003 22.61 27.759 C 22.688 27.516 22.657 26.469 22.391 25.906 C 22.125 25.343 19.344 26 19.344 26 Z"/>
    <path fill="#55ACEE" d="M 18.558 26.942 C 18.958 26.801 19.356 26.783 19.717 26.959 C 20.153 27.171 20.39 27.601 20.39 27.758 C 20.39 27.835 20.124 28.149 19.987 27.837 C 19.834 27.49 19.181 26.96 18.558 26.942 Z M 17.868 27.447 C 18.228 27.32 18.587 27.304 18.912 27.462 C 19.305 27.653 19.518 28.04 19.518 28.181 C 19.518 28.25 19.279 28.533 19.155 28.252 C 19.017 27.939 18.429 27.463 17.868 27.447 Z"/>
    <path fill="#8899A7" d="M 34.844 21.326 C 35.072 21.482 35.129 21.793 34.973 22.019 C 34.816 22.247 34.505 22.306 34.279 22.148 L 25.217 15.912 C 24.989 15.755 24.931 15.444 25.088 15.216 C 25.244 14.989 25.556 14.931 25.783 15.088 L 34.844 21.326 Z"/>
    <path fill="#1C6399" d="M 24.688 14.404 C 24.376 15.362 24.012 16.279 24.376 16.816 C 24.735 17.347 26.048 18.198 26.782 18.094 C 27.516 17.99 28.251 16.344 27.709 14.884 C 27.397 14.043 24.688 14.404 24.688 14.404 Z"/>
    <path fill="#67757F" d="M 21.733 14.605 L 14.284 14.528 L 13.029 16.142 C 12.719 16.54 12.562 17.152 12.562 17.479 C 12.561 18.312 13.124 20.271 13.294 21.766 C 13.475 23.364 16.836 22.559 16.791 21.958 C 16.718 20.986 16.901 20.318 16.489 19.447 C 16.411 19.282 16.688 18.785 16.688 18.785 C 17.103 19.025 17.56 19.18 18.041 19.234 L 17.414 20.503 C 17.19 20.957 17.155 21.612 17.328 22.087 C 17.328 22.087 18.656 25.222 18.804 25.961 C 19.127 27.563 23.01 26.449 22.51 25.351 C 21.915 24.043 21.957 22.397 21.072 21.428 C 21.977 20.293 23.269 18.838 23.113 17.449 C 23.115 17.448 21.794 14.777 21.733 14.605 Z"/>
    <path fill="#BBDDF5" d="M 21.062 7.057 C 20.538 6.949 14.476 9.177 12.954 9.747 C 10.995 10.48 11.573 12.154 10.716 13.691 C 10.257 14.514 9.138 14.888 8.464 15.506 C 7.764 16.149 8.186 17.07 8.66 17.768 C 9.454 18.937 10.245 19.012 11.426 18.255 C 12.342 17.668 13.02 16.745 13.588 15.833 C 14.312 17.888 16.871 18.096 18.771 18.153 C 19.964 18.189 21.191 18.097 22.337 17.746 C 23.174 17.489 23.456 17.349 23.442 16.361 C 23.442 16.361 23.664 14.251 22.898 12.342 C 23.283 12.644 23.635 12.843 23.825 13.301 C 23.977 13.67 23.905 14.095 24.021 14.457 C 24.186 14.968 24.606 15.157 25.108 15.323 C 25.715 15.524 26.43 15.644 27.071 15.575 C 27.941 15.481 27.92 15.134 27.849 14.281 C 27.72 12.72 27.303 11.031 26.101 9.965 C 24.69 8.715 22.941 7.445 21.062 7.057 Z"/>
    <path fill="#1C6399" d="M 29.996 3.938 L 28.877 1.285 C 28.801 1.104 28.604 0.99 28.39 0.999 C 28.261 1.005 25.18 1.173 21.221 4.111 C 17.473 6.891 16.587 6.931 14.643 7.017 L 11.646 7.15 C 11.513 7.156 11.389 7.209 11.299 7.298 C 10.793 7.796 10.684 8.468 11.008 9.097 C 11.419 9.893 12.631 10.711 14.803 10.614 C 16.24 10.55 18.285 9.418 20.654 8.107 C 23.564 6.497 26.862 4.671 29.548 4.552 C 29.709 4.545 29.857 4.469 29.944 4.347 C 30.034 4.225 30.054 4.073 29.996 3.938 Z"/>
    <path fill="#AF7E57" d="M 16.405 4.29 C 17.139 6.373 16.045 8.658 13.962 9.392 C 11.879 10.126 9.594 9.032 8.86 6.949 C 8.126 4.865 9.552 3.524 11.636 2.79 C 13.719 2.055 15.671 2.206 16.405 4.29 Z"/>
    <path fill="#9AAAB4" d="M 10.361 6.419 C 12.247 5.754 13.801 4.147 14.133 5.09 C 14.466 6.033 15.13 7.92 17.016 7.255 C 18.902 6.59 17.519 -0.344 11.86 1.65 C 6.203 3.644 7.532 7.416 10.361 6.419 Z"/>
    <circle fill="#67757F" cx="10.056" cy="7.057" r="2"/>
    <circle fill="#BDDDF4" cx="10.056" cy="7.057" r="1"/>
    <circle fill="#67757F" cx="12.891" cy="6.062" r="2"/>
    <circle fill="#BDDDF4" cx="12.891" cy="6.062" r="1"/>
    <path fill="#1C6399" d="M 8.312 16.373 C 7.405 16.755 6.781 17.5 6.609 17.89 C 6.437 18.28 6.967 19.705 8.312 20.109 C 9.657 20.513 9.797 18.812 10.125 18.5 C 10.453 18.188 9.281 15.965 8.312 16.373 Z"/>
    <path fill="#8899A7" d="M 7.387 18.082 L 7.236 17.921 C 7.069 17.744 7.097 17.447 7.298 17.257 C 7.499 17.068 7.797 17.058 7.964 17.235 C 7.964 17.235 8.056 17.33 8.115 17.396 C 8.335 17.641 7.576 18.288 7.387 18.082 Z"/>
    <path fill="#004A77" d="M 9.818 19.122 C 9.935 18.728 9.661 18.116 9.48 17.873 C 9.143 18.312 8.688 18.783 8.296 18.681 C 8.38 18.995 8.874 18.885 9.181 18.697 C 9.488 18.508 9.818 19.122 9.818 19.122 Z"/>
    <path fill="#55ACEE" d="M 12.776 22.771 C 13.176 22.63 13.574 22.612 13.935 22.788 C 14.371 23 14.608 23.43 14.608 23.587 C 14.608 23.664 14.342 23.978 14.205 23.666 C 14.053 23.318 13.4 22.788 12.776 22.771 Z M 12.086 23.275 C 12.446 23.148 12.805 23.132 13.13 23.29 C 13.523 23.481 13.736 23.868 13.736 24.009 C 13.736 24.078 13.497 24.361 13.373 24.08 C 13.236 23.767 12.648 23.291 12.086 23.275 Z"/>
  </g>
  <g style="" transform="matrix(0.343895, 0, 0, 0.343895, 2.735909, 3.648078)">
    <path fill="#E1E8ED" d="M 28 4 C 27.175 4 26.38 4.125 25.631 4.357 C 24.744 1.822 22.338 0 19.5 0 C 16.456 0 13.908 2.096 13.201 4.921 C 12.447 4.351 11.519 4 10.5 4 C 8.015 4 6 6.015 6 8.5 C 6 9.104 6.123 9.678 6.339 10.204 C 5.91 10.085 5.467 10 5 10 C 2.238 10 0 12.238 0 15 C 0 17.762 2.238 20 5 20 L 28 20 C 32.418 20 36 16.419 36 12 C 36 7.582 32.418 4 28 4 Z"/>
    <path d="M 6.53 26.75 C 6.392 26.511 6.087 26.43 5.847 26.567 L 4 27.634 L 4 25.5 C 4 25.224 3.776 25 3.5 25 C 3.224 25 3 25.224 3 25.5 L 3 27.635 L 1.151 26.568 C 0.912 26.43 0.606 26.511 0.468 26.751 C 0.329 26.991 0.411 27.296 0.651 27.435 L 2.499 28.5 L 0.651 29.567 C 0.412 29.705 0.331 30.01 0.468 30.25 C 0.606 30.49 0.911 30.571 1.151 30.434 L 3 29.366 L 3 31.5 C 3 31.776 3.224 32 3.5 32 C 3.776 32 4 31.776 4 31.5 L 4 29.367 L 5.848 30.434 C 6.087 30.572 6.393 30.491 6.531 30.25 C 6.669 30.011 6.588 29.705 6.348 29.567 L 4.5 28.5 L 6.348 27.433 C 6.587 27.295 6.669 26.99 6.53 26.75 Z M 16.53 30.75 C 16.392 30.511 16.087 30.43 15.847 30.567 L 14 31.634 L 14 29.5 C 14 29.224 13.776 29 13.5 29 C 13.224 29 13 29.224 13 29.5 L 13 31.635 L 11.151 30.568 C 10.912 30.43 10.606 30.511 10.468 30.751 C 10.329 30.991 10.411 31.296 10.651 31.435 L 12.499 32.502 L 10.651 33.569 C 10.412 33.707 10.331 34.012 10.468 34.252 C 10.606 34.492 10.911 34.573 11.151 34.436 L 13 33.366 L 13 35.5 C 13 35.776 13.224 36 13.5 36 C 13.776 36 14 35.776 14 35.5 L 14 33.367 L 15.848 34.434 C 16.087 34.572 16.393 34.491 16.531 34.25 C 16.669 34.011 16.588 33.705 16.348 33.567 L 14.5 32.5 L 16.348 31.433 C 16.587 31.295 16.669 30.99 16.53 30.75 Z M 11 27.5 C 11 27.776 11.224 28 11.5 28 C 11.776 28 12 27.776 12 27.5 L 12 25.367 L 13.848 26.434 C 14.087 26.572 14.393 26.491 14.531 26.25 C 14.669 26.011 14.588 25.705 14.348 25.567 L 12.5 24.5 L 14.348 23.433 C 14.587 23.294 14.669 22.99 14.531 22.749 C 14.393 22.51 14.088 22.429 13.848 22.566 L 12 23.634 L 12 21.5 C 12 21.224 11.776 21 11.5 21 C 11.224 21 11 21.224 11 21.5 L 11 23.635 L 9.151 22.568 C 8.912 22.43 8.606 22.511 8.468 22.751 C 8.329 22.991 8.411 23.296 8.651 23.435 L 10.499 24.502 L 8.651 25.569 C 8.412 25.707 8.331 26.012 8.468 26.252 C 8.606 26.492 8.911 26.573 9.151 26.436 L 11 25.366 L 11 27.5 Z M 23.848 27.434 C 24.087 27.572 24.393 27.491 24.531 27.25 C 24.669 27.011 24.588 26.705 24.348 26.567 L 22.5 25.5 L 24.348 24.433 C 24.587 24.294 24.669 23.99 24.531 23.749 C 24.393 23.51 24.088 23.429 23.848 23.566 L 22 24.634 L 22 22.5 C 22 22.224 21.776 22 21.5 22 C 21.224 22 21 22.224 21 22.5 L 21 24.635 L 19.151 23.568 C 18.912 23.43 18.606 23.511 18.468 23.751 C 18.329 23.991 18.411 24.296 18.651 24.435 L 20.499 25.502 L 18.651 26.569 C 18.412 26.707 18.331 27.012 18.468 27.252 C 18.606 27.492 18.911 27.573 19.151 27.436 L 21 26.366 L 21 28.5 C 21 28.776 21.224 29 21.5 29 C 21.776 29 22 28.776 22 28.5 L 22 26.367 L 23.848 27.434 Z M 34.348 25.567 L 32.5 24.5 L 34.348 23.433 C 34.587 23.294 34.669 22.99 34.531 22.749 C 34.393 22.51 34.088 22.429 33.848 22.566 L 32 23.634 L 32 21.5 C 32 21.224 31.776 21 31.5 21 C 31.224 21 31 21.224 31 21.5 L 31 23.635 L 29.151 22.568 C 28.912 22.43 28.606 22.511 28.468 22.751 C 28.329 22.991 28.411 23.296 28.651 23.435 L 30.499 24.502 L 28.651 25.569 C 28.412 25.707 28.331 26.012 28.468 26.252 C 28.606 26.492 28.911 26.573 29.151 26.436 L 31 25.366 L 31 27.5 C 31 27.776 31.224 28 31.5 28 C 31.776 28 32 27.776 32 27.5 L 32 25.367 L 33.848 26.434 C 34.087 26.572 34.393 26.491 34.531 26.25 C 34.668 26.011 34.587 25.705 34.348 25.567 Z M 29.53 30.75 C 29.392 30.511 29.087 30.43 28.847 30.567 L 27 31.634 L 27 29.5 C 27 29.224 26.776 29 26.5 29 C 26.224 29 26 29.224 26 29.5 L 26 31.635 L 24.151 30.568 C 23.912 30.43 23.606 30.511 23.468 30.751 C 23.329 30.991 23.411 31.296 23.651 31.435 L 25.499 32.502 L 23.651 33.569 C 23.412 33.707 23.331 34.012 23.468 34.252 C 23.606 34.492 23.911 34.573 24.151 34.436 L 26 33.366 L 26 35.5 C 26 35.776 26.224 36 26.5 36 C 26.776 36 27 35.776 27 35.5 L 27 33.367 L 28.848 34.434 C 29.087 34.572 29.393 34.491 29.531 34.25 C 29.669 34.011 29.588 33.705 29.348 33.567 L 27.5 32.5 L 29.348 31.433 C 29.587 31.295 29.669 30.99 29.53 30.75 Z" fill="#5DADEC"/>
  </g>
</svg>