<?xml version="1.0" encoding="utf-8"?>
<svg viewBox="0 0 36 36" xmlns="http://www.w3.org/2000/svg">
  <g transform="matrix(0.386769, 0, 0, 0.386769, 21.160561, 21.06864)" style="">
    <path fill="#F4900C" d="M 32.664 8.519 C 29.364 5.134 23.42 4.75 18 4.75 C 12.58 4.75 6.636 5.134 3.336 8.519 C 0.582 11.344 0 15.751 0 19.791 C 0 25.054 1.982 31.102 6.357 34.035 C 9.364 36.051 13.95 35.871 18 35.871 C 22.05 35.871 26.636 36.051 29.643 34.035 C 34.018 31.101 36 25.054 36 19.791 C 36 15.751 35.418 11.344 32.664 8.519 Z"/>
    <path fill="#3F7123" d="M 20.783 5.444 C 20.852 5.864 20.561 6.208 20.136 6.208 L 15.685 6.208 C 15.259 6.208 14.968 5.864 15.038 5.444 L 15.783 0.972 C 15.853 0.551 16.259 0.208 16.685 0.208 L 19.136 0.208 C 19.562 0.208 19.968 0.552 20.037 0.972 L 20.783 5.444 Z"/>
    <path fill="#642116" d="M 20.654 21.159 L 19.056 18.563 C 18.765 18.021 18.383 17.75 17.999 17.746 C 17.616 17.75 17.233 18.021 16.942 18.563 L 15.344 21.159 C 14.757 22.252 16.217 22.875 17.998 22.875 C 19.779 22.875 21.241 22.251 20.654 21.159 Z M 30.162 24.351 C 30.117 24.276 30.036 24.23 29.948 24.23 L 29.107 24.23 C 29.039 24.23 28.973 24.258 28.926 24.307 L 26.695 26.641 L 23.997 24.472 C 23.946 24.431 23.88 24.414 23.812 24.419 C 23.746 24.426 23.685 24.46 23.644 24.513 L 21.236 27.575 L 18.182 24.309 C 18.169 24.295 18.149 24.292 18.134 24.281 C 18.119 24.271 18.109 24.254 18.091 24.247 C 18.085 24.245 18.078 24.247 18.072 24.245 C 18.048 24.238 18.025 24.24 18 24.24 C 17.975 24.24 17.952 24.238 17.928 24.246 C 17.922 24.248 17.915 24.245 17.908 24.248 C 17.89 24.255 17.881 24.272 17.865 24.282 C 17.849 24.292 17.83 24.295 17.817 24.309 L 14.764 27.575 L 12.355 24.513 C 12.314 24.46 12.253 24.426 12.187 24.419 C 12.121 24.413 12.054 24.431 12.002 24.472 L 9.304 26.641 L 7.074 24.307 C 7.027 24.258 6.962 24.23 6.893 24.23 L 6.052 24.23 C 5.965 24.23 5.883 24.276 5.838 24.351 C 5.793 24.426 5.79 24.519 5.831 24.596 L 8.585 29.815 C 8.619 29.879 8.678 29.925 8.749 29.942 C 8.82 29.959 8.894 29.944 8.952 29.902 L 10.986 28.444 L 13.99 32.077 C 14.033 32.13 14.096 32.162 14.164 32.167 L 14.183 32.168 C 14.245 32.168 14.304 32.146 14.35 32.105 L 18 28.836 L 21.65 32.104 C 21.696 32.145 21.755 32.167 21.817 32.167 L 21.836 32.166 C 21.904 32.161 21.967 32.129 22.01 32.076 L 25.015 28.443 L 27.049 29.901 C 27.109 29.944 27.182 29.961 27.252 29.941 C 27.322 29.924 27.382 29.879 27.415 29.815 L 30.17 24.596 C 30.21 24.519 30.208 24.426 30.162 24.351 Z M 27.976 15.421 C 28.105 17.548 27.192 19.227 24.771 19.374 C 22.351 19.52 21.242 17.963 21.113 15.837 C 20.984 13.711 22.345 10.717 24.24 10.603 C 26.136 10.487 27.848 13.294 27.976 15.421 Z M 8.024 15.421 C 7.895 17.548 8.808 19.227 11.229 19.374 C 13.649 19.52 14.758 17.963 14.887 15.837 C 15.016 13.711 13.655 10.717 11.76 10.603 C 9.865 10.489 8.152 13.294 8.024 15.421 Z"/>
  </g>
  <g style="" transform="matrix(0.716998, 0, 0, 0.716998, -2.660567, 0.161213)">
    <path fill="#662113" d="M 25.651 34.025 C 25.651 36.234 23.86 37.025 21.651 37.025 C 19.442 37.025 17.651 36.234 17.651 34.025 L 18.651 25.025 C 18.651 22.816 19.442 23.025 21.651 23.025 C 23.86 23.025 24.651 22.816 24.651 25.025 L 25.651 34.025 Z"/>
    <path fill="#5C913B" d="M 37.651 18.025 C 37.651 26.862 30.488 30.025 21.651 30.025 C 12.815 30.025 5.651 26.862 5.651 18.025 C 5.651 9.189 14.651 1.025 21.651 1.025 C 28.651 1.025 37.651 9.189 37.651 18.025 Z"/>
    <g fill="#3E721D" transform="matrix(1, 0, 0, 1, 3.651246, 1.024912)">
      <ellipse cx="6" cy="21" rx="2" ry="1"/>
      <ellipse cx="30" cy="21" rx="2" ry="1"/>
      <ellipse cx="10" cy="25" rx="2" ry="1"/>
      <ellipse cx="14" cy="22" rx="2" ry="1"/>
      <ellipse cx="10" cy="16" rx="2" ry="1"/>
      <ellipse cx="7" cy="12" rx="2" ry="1"/>
      <ellipse cx="29" cy="12" rx="2" ry="1"/>
      <ellipse cx="14" cy="10" rx="2" ry="1"/>
      <ellipse cx="22" cy="10" rx="2" ry="1"/>
      <ellipse cx="26" cy="16" rx="2" ry="1"/>
      <ellipse cx="18" cy="17" rx="2" ry="1"/>
      <ellipse cx="22" cy="22" rx="2" ry="1"/>
      <ellipse cx="18" cy="26" rx="2" ry="1"/>
      <ellipse cx="26" cy="25" rx="2" ry="1"/>
    </g>
  </g>
  <g transform="matrix(1.115245, 0, 0, 1.115245, 1.887177, -7.123256)" style="">
    <path fill="#D99E82" d="M 4.313 31.028 C 4.313 32.389 3.697 34.898 0.289 35.033 C 1.097 33.839 0 32.389 0 31.028 C 0 29.667 0.795 28.563 2.157 28.563 C 3.518 28.563 4.313 29.667 4.313 31.028 Z" style=""/>
    <path fill="#C1694F" d="M 2.464 31.515 C 2.464 31.507 2.465 31.499 2.465 31.49 L 2.465 30.412 L 2.632 30.412 C 3.534 30.412 4.31 31.182 4.31 31.182 C 4.31 31.012 3.646 29.796 2.542 29.796 L 2.465 29.796 L 2.465 27.639 C 2.465 27.469 2.327 27.331 2.157 27.331 C 1.986 27.331 1.848 27.469 1.848 27.639 L 1.848 29.796 L 1.682 29.796 C 0.578 29.796 0.005 31.012 0.005 31.182 C 0.005 31.182 0.689 30.412 1.592 30.412 L 1.848 30.412 L 1.848 31.041 C 1.848 31.162 1.842 31.272 1.839 31.386 L 1.706 31.383 C 0.602 31.361 0.311 32.42 0.308 32.59 C 0.308 32.59 0.701 31.979 1.604 31.997 L 1.799 32.001 C 1.767 32.325 1.719 32.615 1.66 32.875 C 1.124 32.992 0.652 33.433 0.624 33.552 C 0.624 33.552 1.201 33.402 1.507 33.422 C 1.048 34.754 0.289 35.033 0.289 35.033 C 0.403 35.033 1.346 34.733 1.952 33.662 L 2.069 33.717 C 2.321 33.868 2.606 34.4 2.606 34.4 C 2.664 34.278 2.649 33.502 2.208 33.094 C 2.307 32.815 2.382 32.499 2.424 32.14 C 3.259 32.384 3.725 33.268 3.725 33.268 C 3.764 33.104 3.497 31.805 2.464 31.515 Z" style=""/>
    <path fill="#D99E82" d="M 4.829 30.191 C 4.829 32.144 5.713 35.745 10.604 35.938 C 9.444 34.225 11.019 32.144 11.019 30.191 C 11.019 28.237 9.877 26.654 7.924 26.654 C 5.971 26.654 4.829 28.237 4.829 30.191 Z" style=""/>
    <path fill="#C1694F" d="M 8.717 31.582 C 10.012 31.557 10.576 32.433 10.576 32.433 C 10.571 32.189 10.155 30.67 8.57 30.701 L 8.326 30.706 C 8.322 30.544 8.318 30.38 8.318 30.209 L 8.318 29.487 L 8.734 29.487 C 10.029 29.487 11.012 30.419 11.012 30.419 C 11.012 30.174 10.19 28.563 8.605 28.563 L 8.318 28.563 L 8.318 25.328 C 8.318 25.084 8.1 24.886 7.856 24.886 C 7.612 24.886 7.394 25.084 7.394 25.328 L 7.394 28.563 L 7.371 28.563 C 5.787 28.563 4.833 30.174 4.833 30.419 C 4.833 30.419 5.947 29.487 7.243 29.487 L 7.394 29.487 L 7.394 30.854 C 7.394 30.876 7.395 30.897 7.395 30.919 C 5.987 31.382 5.618 33.175 5.674 33.404 C 5.674 33.404 6.309 32.198 7.452 31.814 C 7.516 32.345 7.632 32.812 7.783 33.22 C 7.216 33.821 7.199 34.86 7.279 35.029 C 7.279 35.029 7.687 34.266 8.05 34.049 L 8.149 34.003 C 9.026 35.517 10.373 35.938 10.536 35.938 C 10.536 35.938 9.455 35.541 8.803 33.629 C 9.225 33.578 10.122 33.813 10.122 33.813 C 10.082 33.638 9.37 32.974 8.578 32.827 C 8.495 32.458 8.429 32.047 8.383 31.589 L 8.717 31.582 Z" style=""/>
    <path fill="#C1694F" d="M 2.464 31.515 C 2.464 31.507 2.465 31.499 2.465 31.49 L 2.465 30.412 L 2.632 30.412 C 3.534 30.412 4.31 31.182 4.31 31.182 C 4.31 31.012 3.646 29.796 2.542 29.796 L 2.465 29.796 L 2.465 27.639 C 2.465 27.469 2.327 27.331 2.157 27.331 C 1.986 27.331 1.848 27.469 1.848 27.639 L 1.848 29.796 L 1.682 29.796 C 0.578 29.796 0.005 31.012 0.005 31.182 C 0.005 31.182 0.689 30.412 1.592 30.412 L 1.848 30.412 L 1.848 31.041 C 1.848 31.162 1.842 31.272 1.839 31.386 L 1.706 31.383 C 0.602 31.361 0.311 32.42 0.308 32.59 C 0.308 32.59 0.701 31.979 1.604 31.997 L 1.799 32.001 C 1.767 32.325 1.719 32.615 1.66 32.875 C 1.124 32.992 0.652 33.433 0.624 33.552 C 0.624 33.552 1.201 33.402 1.507 33.422 C 1.048 34.754 0.289 35.033 0.289 35.033 C 0.403 35.033 1.346 34.733 1.952 33.662 L 2.069 33.717 C 2.321 33.868 2.606 34.4 2.606 34.4 C 2.664 34.278 2.649 33.502 2.208 33.094 C 2.307 32.815 2.382 32.499 2.424 32.14 C 3.259 32.384 3.725 33.268 3.725 33.268 C 3.764 33.104 3.497 31.805 2.464 31.515 Z" style=""/>
  </g>
  <g transform="matrix(0.087256, 0, 0, 0.087256, 11.626884, 10.855547)" style="">
    <path fill="#DD2E44" d="M 24 7 C 21 7 21 8 18 8 C 15 8 15 7 12 7 C 8 7 3 9 3 16 C 3 27 9 36 13 36 C 16 36 16 35 18 35 C 20 35 20 36 23 36 C 27 36 33 27 33 16 C 33 8.999 28 7 24 7 Z"/>
    <path fill="#77B255" d="M 19 7 C 19 7 22 3 27 3 C 31 3 33 5 33 5 C 33 5 29 8 26 8 C 23 8 19 7 19 7 Z"/>
    <path fill="#662113" d="M 18 10 C 17.448 10 17 9.552 17 9 C 17 5.559 18.2 2.385 20.293 0.293 C 20.684 -0.098 21.316 -0.098 21.707 0.293 C 22.098 0.684 22.098 1.317 21.707 1.707 C 19.986 3.427 19 6.085 19 9 C 19 9.552 18.552 10 18 10 Z"/>
  </g>
  <g transform="matrix(0.087256, 0, 0, 0.087256, 8.976517, 4.56936)" style="">
    <path fill="#DD2E44" d="M 24 7 C 21 7 21 8 18 8 C 15 8 15 7 12 7 C 8 7 3 9 3 16 C 3 27 9 36 13 36 C 16 36 16 35 18 35 C 20 35 20 36 23 36 C 27 36 33 27 33 16 C 33 8.999 28 7 24 7 Z"/>
    <path fill="#77B255" d="M 19 7 C 19 7 22 3 27 3 C 31 3 33 5 33 5 C 33 5 29 8 26 8 C 23 8 19 7 19 7 Z"/>
    <path fill="#662113" d="M 18 10 C 17.448 10 17 9.552 17 9 C 17 5.559 18.2 2.385 20.293 0.293 C 20.684 -0.098 21.316 -0.098 21.707 0.293 C 22.098 0.684 22.098 1.317 21.707 1.707 C 19.986 3.427 19 6.085 19 9 C 19 9.552 18.552 10 18 10 Z"/>
  </g>
  <g transform="matrix(0.087256, 0, 0, 0.087256, 6.197797, 14.219188)" style="">
    <path fill="#DD2E44" d="M 24 7 C 21 7 21 8 18 8 C 15 8 15 7 12 7 C 8 7 3 9 3 16 C 3 27 9 36 13 36 C 16 36 16 35 18 35 C 20 35 20 36 23 36 C 27 36 33 27 33 16 C 33 8.999 28 7 24 7 Z"/>
    <path fill="#77B255" d="M 19 7 C 19 7 22 3 27 3 C 31 3 33 5 33 5 C 33 5 29 8 26 8 C 23 8 19 7 19 7 Z"/>
    <path fill="#662113" d="M 18 10 C 17.448 10 17 9.552 17 9 C 17 5.559 18.2 2.385 20.293 0.293 C 20.684 -0.098 21.316 -0.098 21.707 0.293 C 22.098 0.684 22.098 1.317 21.707 1.707 C 19.986 3.427 19 6.085 19 9 C 19 9.552 18.552 10 18 10 Z"/>
  </g>
  <g transform="matrix(0.087256, 0, 0, 0.087256, 16.710642, 14.877523)" style="">
    <path fill="#DD2E44" d="M 24 7 C 21 7 21 8 18 8 C 15 8 15 7 12 7 C 8 7 3 9 3 16 C 3 27 9 36 13 36 C 16 36 16 35 18 35 C 20 35 20 36 23 36 C 27 36 33 27 33 16 C 33 8.999 28 7 24 7 Z"/>
    <path fill="#77B255" d="M 19 7 C 19 7 22 3 27 3 C 31 3 33 5 33 5 C 33 5 29 8 26 8 C 23 8 19 7 19 7 Z"/>
    <path fill="#662113" d="M 18 10 C 17.448 10 17 9.552 17 9 C 17 5.559 18.2 2.385 20.293 0.293 C 20.684 -0.098 21.316 -0.098 21.707 0.293 C 22.098 0.684 22.098 1.317 21.707 1.707 C 19.986 3.427 19 6.085 19 9 C 19 9.552 18.552 10 18 10 Z"/>
  </g>
  <g transform="matrix(0.087256, 0, 0, 0.087256, 17.028173, 6.695)" style="">
    <path fill="#DD2E44" d="M 24 7 C 21 7 21 8 18 8 C 15 8 15 7 12 7 C 8 7 3 9 3 16 C 3 27 9 36 13 36 C 16 36 16 35 18 35 C 20 35 20 36 23 36 C 27 36 33 27 33 16 C 33 8.999 28 7 24 7 Z"/>
    <path fill="#77B255" d="M 19 7 C 19 7 22 3 27 3 C 31 3 33 5 33 5 C 33 5 29 8 26 8 C 23 8 19 7 19 7 Z"/>
    <path fill="#662113" d="M 18 10 C 17.448 10 17 9.552 17 9 C 17 5.559 18.2 2.385 20.293 0.293 C 20.684 -0.098 21.316 -0.098 21.707 0.293 C 22.098 0.684 22.098 1.317 21.707 1.707 C 19.986 3.427 19 6.085 19 9 C 19 9.552 18.552 10 18 10 Z"/>
  </g>
  <g transform="matrix(0.087256, 0, 0, 0.087256, 4.61539, 8.095245)" style="">
    <path fill="#DD2E44" d="M 24 7 C 21 7 21 8 18 8 C 15 8 15 7 12 7 C 8 7 3 9 3 16 C 3 27 9 36 13 36 C 16 36 16 35 18 35 C 20 35 20 36 23 36 C 27 36 33 27 33 16 C 33 8.999 28 7 24 7 Z"/>
    <path fill="#77B255" d="M 19 7 C 19 7 22 3 27 3 C 31 3 33 5 33 5 C 33 5 29 8 26 8 C 23 8 19 7 19 7 Z"/>
    <path fill="#662113" d="M 18 10 C 17.448 10 17 9.552 17 9 C 17 5.559 18.2 2.385 20.293 0.293 C 20.684 -0.098 21.316 -0.098 21.707 0.293 C 22.098 0.684 22.098 1.317 21.707 1.707 C 19.986 3.427 19 6.085 19 9 C 19 9.552 18.552 10 18 10 Z"/>
  </g>
</svg>