<?xml version="1.0" encoding="utf-8"?>
<svg viewBox="0 0 36 36" xmlns="http://www.w3.org/2000/svg">
  <g style="" transform="matrix(0.603425, 0, 0, 0.603425, 12.636127, 12.975231)">
    <ellipse fill="#3B88C3" cx="18" cy="30.54" rx="18" ry="5.36"/>
    <path fill="#88C9F9" d="M 33.813 28.538 C 33.813 30.154 31.313 31.125 19.331 31.125 C 8.406 31.125 5.719 30.154 5.719 28.538 C 5.719 26.922 11.402 25.612 19.331 25.612 C 27.26 25.612 33.813 26.922 33.813 28.538 Z"/>
    <path fill="#F4900C" d="M 7 28.25 C 7 27.25 8 23.25 18 23.25 C 30 23.25 33 27.25 33 28.25 C 33 29.25 33 30.25 19 30.25 C 7 30.25 7 29.25 7 28.25 Z"/>
    <path fill="#66757F" d="M 20.62 27.667 C 20.47 28.359 19.785 28.8 19.093 28.649 C 18.4 28.499 17.96 27.815 18.11 27.122 L 23.193 1.137 C 23.343 0.444 24.027 0.005 24.72 0.155 C 25.411 0.305 25.853 0.989 25.701 1.682 L 20.62 27.667 Z"/>
    <path fill="#DD2E44" d="M 24.358 1.827 C 16.736 0.173 9.501 3.7 8.198 9.705 C 8.198 9.705 7.835 11.377 8.672 11.559 C 9.508 11.741 11.544 10.431 11.544 10.431 L 32.452 14.969 C 32.452 14.969 33.761 17.005 34.598 17.187 C 35.435 17.369 35.797 15.696 35.797 15.696 C 37.101 9.69 31.979 3.481 24.358 1.827 Z"/>
    <path fill="#FFE8B6" d="M 24.358 1.827 C 18.584 0.574 12.847 4.426 11.544 10.43 C 11.544 10.43 11.181 12.103 12.854 12.466 C 14.527 12.83 17.399 11.701 17.399 11.701 L 26.598 13.698 C 26.598 13.698 28.744 15.915 30.417 16.279 C 32.09 16.641 32.452 14.968 32.452 14.968 C 33.755 8.964 30.131 3.08 24.358 1.827 Z"/>
    <path fill="#DD2E44" d="M 24.358 1.827 C 21.355 1.176 18.701 5.697 17.398 11.701 C 17.398 11.701 19.544 13.919 21.216 14.281 L 22.053 14.464 C 23.726 14.826 26.597 13.698 26.597 13.698 C 27.901 7.694 27.361 2.479 24.358 1.827 Z"/>
    <path fill="#FFAC33" d="M 15.844 27.948 C 16.313 27.521 17.594 27.622 18.344 27.346 C 19.094 27.07 19.563 26.719 20.188 26.97 C 20.813 27.221 21 27.597 21.594 27.648 C 22.188 27.699 22.625 28.05 22.375 28.326 C 22.125 28.602 20.156 28.702 18.844 28.702 C 17.532 28.702 15.265 28.476 15.844 27.948 Z"/>
  </g>
  <g style="" transform="matrix(0.268102, 0, 0, 0.268102, -0.570081, 23.341316)">
    <path fill="#FFCC4D" d="M 17.182 23 L 9.818 23 C 9.818 23 11.171 29.5 12.169 32.752 C 13.167 36.006 16.773 36 17.591 36 C 19.226 36 22.015 36.006 23.013 32.752 C 24.01 29.5 26.183 23 26.183 23 L 17.182 23 Z"/>
    <path fill="#FFAC33" d="M 18 28 C 21.46 28 23.831 27.249 25.097 26.275 C 25.446 25.215 25.75 24.298 25.947 23.706 C 25.797 23.456 25.574 23.219 25.277 23 L 10.723 23 C 10.382 23.252 10.138 23.526 9.991 23.817 C 10.1 24.325 10.253 25.031 10.438 25.854 C 11.527 27.024 14.055 28 18 28 Z"/>
    <path fill="#FFCC4D" d="M 9 20 L 9 23 C 9 24.657 13.03 26 18 26 C 22.97 26 27 24.657 27 23 L 27 20 L 9 20 Z"/>
    <path fill="#F4900C" d="M 26.183 20.5 C 26.183 21.881 22.519 23 18 23 C 13.481 23 9.818 21.881 9.818 20.5 C 9.818 19.119 13.481 18 18 18 C 22.519 18 26.183 19.119 26.183 20.5 Z"/>
    <path fill="#FFE8B6" d="M 26.902 13.908 C 27.12 12.969 27.061 11.967 26.644 10.966 C 26.24 9.997 25.538 9.24 24.688 8.727 C 24.878 8.018 24.842 7.258 24.509 6.499 C 24.008 5.354 22.92 4.596 21.695 4.386 C 21.847 4.045 21.909 3.626 21.734 3.098 C 21.139 1.316 18.764 2.514 16.983 0.139 C 15.507 1.024 15.206 2.347 15.276 3.454 C 13.924 3.695 13.144 3.986 13.144 3.986 L 13.144 3.987 C 12.336 4.314 11.765 5.106 11.765 6.031 C 11.765 6.521 11.93 6.97 12.201 7.336 L 11.721 7.515 L 11.722 7.517 C 10.338 8.034 9.362 9.284 9.362 10.746 C 9.362 11.368 9.553 11.943 9.862 12.448 C 8.176 13.198 7 14.838 7 16.754 C 7 19.249 8.989 21.272 11.508 21.466 C 14.171 22.292 19.498 22.066 23.584 21.375 C 25.955 20.975 28.375 19.555 28.375 17.15 C 28.375 15.855 27.799 14.705 26.902 13.908 Z"/>
    <path d="M 14.75 18.212 C 12.51 18.846 9.148 19.008 7.36 18.526 C 8.085 20.27 9.838 21.503 11.895 21.503 C 18.04 21.503 24.312 17.32 24.312 17.32 C 26.281 16.094 27.284 14.16 26.961 12.132 C 24.919 15.02 17.092 17.549 14.75 18.212 Z M 13.135 14.231 C 17.874 14.231 22.71 11.162 22.71 11.162 C 24.293 10.225 25.082 8.724 24.73 7.168 C 18.704 11.086 13.166 12.238 9.812 12.366 C 10.445 13.47 11.688 14.231 13.135 14.231 Z M 11.833 6.555 C 12.069 7.519 12.933 8.236 13.969 8.236 C 14.624 8.236 15.281 8.125 15.905 7.959 C 16.289 7.843 16.669 7.719 17.048 7.584 C 18.504 7.019 19.565 6.293 19.565 6.293 C 20.621 5.616 21.708 4.42 21.708 4.42 C 21.708 4.42 22.077 3.589 21.458 3.101 C 19.713 4.849 14.145 6.579 11.833 6.555 Z" fill="#FFD983"/>
  </g>
  <g style="" transform="matrix(0.158172, 0, 0, 0.158172, 25.766933, 4.739027)">
    <path fill="#FFAC33" d="M 8.916 12.88 C 8.805 14.532 10.684 16.006 8.204 15.839 C 5.724 15.672 0.368 13.306 0.436 12.309 C 0.504 11.312 4.144 9.552 6.624 9.719 C 9.104 9.885 9.028 11.227 8.916 12.88 Z M 29.038 28.929 C 28.836 28.897 28.646 28.944 28.474 29.024 C 26.149 29.256 25.249 27.139 25.249 27.139 C 24.81 26.803 24.268 25.13 23.66 25.924 L 23.847 27.326 C 24.034 28.728 26.417 30.55 26.417 30.55 L 25.202 32.139 C 24.866 32.578 24.95 33.205 25.389 33.541 C 25.828 33.877 26.455 33.793 26.791 33.354 L 27.464 32.474 L 27.425 32.723 C 27.338 33.269 27.71 33.781 28.256 33.868 C 28.802 33.955 29.314 33.583 29.401 33.037 L 29.871 30.074 C 29.956 29.528 29.584 29.016 29.038 28.929 Z M 22.76 29.552 C 22.564 29.494 22.37 29.515 22.188 29.57 C 19.853 29.488 19.244 27.27 19.244 27.27 C 18.854 26.878 18.541 25.147 17.832 25.853 L 17.829 27.267 C 17.826 28.681 19.944 30.806 19.944 30.806 L 18.527 32.218 C 18.135 32.608 18.134 33.241 18.524 33.632 C 18.914 34.024 19.547 34.025 19.938 33.635 L 20.723 32.853 L 20.65 33.095 C 20.491 33.624 20.791 34.181 21.32 34.341 C 21.849 34.5 22.407 34.2 22.566 33.671 L 23.428 30.798 C 23.59 30.268 23.29 29.711 22.76 29.552 Z"/>
    <path fill="#DD2E44" d="M 35.009 6.729 C 34.626 6.559 34.251 6.672 33.959 6.973 C 33.905 7.029 29.734 13.279 19.427 11.917 C 19.087 11.872 22.566 23.885 22.626 23.879 C 22.75 23.865 25.696 23.511 28.766 21.326 C 31.584 19.321 35.05 15.335 35.563 7.728 C 35.591 7.31 35.392 6.9 35.009 6.729 Z"/>
    <path fill="#DD2E44" d="M 34.477 21.108 C 34.273 20.772 33.887 20.548 33.498 20.637 C 32.205 20.932 30.301 21.18 28.968 21.09 C 22.611 20.662 19.607 16.961 19.576 16.93 C 19.301 16.648 20.042 28.482 20.392 28.506 C 29.586 29.126 34.254 22.479 34.449 22.196 C 34.671 21.87 34.682 21.445 34.477 21.108 Z"/>
    <path fill="#DD2E44" d="M 24.586 19.016 C 24.215 24.526 25.902 28.877 20.392 28.505 C 14.882 28.134 10.247 23.585 10.618 18.074 C 10.989 12.563 24.958 13.506 24.586 19.016 Z"/>
    <path fill="#DD2E44" d="M 23.257 12.412 C 22.904 17.647 19.335 21.669 14.101 21.316 C 8.866 20.963 4.908 16.434 5.261 11.199 C 5.614 5.964 10.093 2.755 15.328 3.108 C 19.329 3.377 23.568 7.791 23.257 12.412 Z"/>
    <circle fill="#292F33" cx="10.67" cy="8.989" r="2"/>
    <path fill="#A0041E" d="M 18.179 16.645 C 18.179 16.645 25.809 22.293 30.566 12.186 C 30.962 11.344 32.251 12.979 30.665 16.348 C 29.079 19.717 22.49 22.788 18.625 17.884 C 17.81 16.849 18.179 16.645 18.179 16.645 Z"/>
    <path fill="#DD2E44" d="M 15.327 3.107 C 15.327 3.107 21.573 3.361 23.125 2.63 C 24.677 1.899 23.261 5.562 19.863 6.419 C 16.465 7.276 15.327 3.107 15.327 3.107 Z"/>
    <path fill="#DD2E44" d="M 17.428 5.788 C 17.428 5.788 21.929 5.924 23.482 5.194 C 25.035 4.464 23.618 8.126 20.22 8.983 C 16.821 9.84 17.428 5.788 17.428 5.788 Z"/>
  </g>
  <g style="" transform="matrix(0.23042, 0, 0, 0.23042, 3.595571, 25.903326)">
    <path fill="#55ACEE" d="M 20 28.625 C 20 28.625 30.661 25.9 33.356 15.72 C 33.752 14.225 31.838 13 29.488 13 L 5.999 13 C 4.824 13 2.259 13.493 2.927 15.894 C 5.711 25.9 16 28.625 16 28.625 L 16 29.798 C 16 29.798 11.366 32.241 10.412 32.808 C 9.385 33.396 10.144 34.334 10.556 34.497 C 11.24 34.766 12.946 35.647 17.672 35.647 C 22.519 35.647 25.169 34.693 25.755 34.497 C 25.981 34.422 26.952 33.524 25.557 32.698 C 23.073 31.228 20 29.798 20 29.798 L 20 28.625 Z"/>
    <path fill="#3B88C3" d="M 33.291 15.248 C 33.291 16.94 26.456 18.312 18.022 18.312 C 9.59 18.312 2.754 16.941 2.754 15.248 C 2.754 13.555 9.59 12.184 18.022 12.184 C 26.456 12.184 33.291 13.555 33.291 15.248 Z"/>
    <path fill="#F4ABBA" d="M 25.982 6.908 C 25.982 8.521 22.849 11.653 18.15 11.653 C 13.825 11.653 10.319 9.565 10.319 6.908 C 10.319 2.583 13.824 0.121 18.15 0.121 C 22.477 0.122 25.982 2.583 25.982 6.908 Z"/>
    <path fill="#FFE8B6" d="M 33.291 14.217 C 33.291 15.83 30.159 18.44 25.461 18.44 C 21.135 18.44 17.629 19.833 17.629 14.217 C 17.629 9.892 21.135 6.386 25.461 6.386 C 29.786 6.386 33.291 9.892 33.291 14.217 Z"/>
    <path fill="#8A4B38" d="M 18.672 14.217 C 18.672 19.399 15.54 18.528 10.841 18.528 C 6.516 18.528 3.01 16.875 3.01 14.217 C 3.01 9.892 6.516 6.386 10.841 6.386 C 15.167 6.386 18.672 9.892 18.672 14.217 Z"/>
    <path fill="#3B88C3" d="M 30.837 21.098 C 31.661 19.937 32.378 18.611 32.919 17.103 C 19.434 21.835 6.849 18.478 3.442 17.439 C 3.932 18.718 4.545 19.864 5.239 20.885 C 16.589 24.136 26.79 22.089 30.837 21.098 Z"/>
    <path fill="#55ACEE" d="M 2.837 15.177 C 4.233 15.777 18.325 20.223 33.335 15.264 C 33.335 15.916 32.924 17.741 32.682 18.439 C 32.291 19.571 17.281 23.269 3.794 18.7 C 3.402 18.527 2.228 14.916 2.837 15.177 Z"/>
  </g>
  <g style="" transform="matrix(0.382122, 0, 0, 0.382122, 1.479522, 1.756747)">
    <path fill="#F4900C" d="M 18 35.8 C 17.61 35.8 17.255 35.582 17.079 35.235 L 15.279 31.681 L 12.255 34.277 C 12.064 34.438 11.825 34.524 11.583 34.524 C 11.45 34.524 11.316 34.499 11.189 34.446 C 10.83 34.298 10.583 33.959 10.555 33.573 L 10.251 29.597 L 6.463 30.838 C 6.358 30.872 6.25 30.889 6.142 30.889 C 5.872 30.889 5.61 30.783 5.412 30.586 C 5.138 30.313 5.041 29.905 5.162 29.535 L 6.402 25.747 L 2.43 25.446 C 2.043 25.415 1.704 25.171 1.555 24.812 C 1.407 24.451 1.472 24.04 1.725 23.745 L 4.319 20.721 L 0.765 18.921 C 0.418 18.745 0.2 18.388 0.2 18 C 0.2 17.612 0.418 17.255 0.765 17.079 L 4.319 15.279 L 1.725 12.255 C 1.473 11.96 1.407 11.547 1.555 11.189 C 1.704 10.83 2.042 10.583 2.43 10.555 L 6.402 10.251 L 5.162 6.463 C 5.041 6.093 5.138 5.688 5.412 5.412 C 5.61 5.216 5.872 5.111 6.142 5.111 C 6.25 5.111 6.358 5.128 6.463 5.162 L 10.251 6.402 L 10.555 2.43 C 10.584 2.042 10.83 1.704 11.189 1.555 C 11.316 1.503 11.45 1.477 11.583 1.477 C 11.825 1.477 12.064 1.561 12.255 1.725 L 15.279 4.319 L 17.079 0.765 C 17.255 0.418 17.61 0.2 18 0.2 C 18.388 0.2 18.745 0.418 18.92 0.765 L 20.722 4.319 L 23.746 1.725 C 23.936 1.561 24.177 1.477 24.417 1.477 C 24.552 1.477 24.685 1.503 24.813 1.555 C 25.171 1.704 25.416 2.042 25.447 2.43 L 25.75 6.402 L 29.535 5.162 C 29.64 5.127 29.75 5.111 29.856 5.111 C 30.126 5.111 30.39 5.216 30.585 5.412 C 30.861 5.688 30.958 6.094 30.837 6.463 L 29.596 10.251 L 33.572 10.555 C 33.958 10.584 34.297 10.83 34.445 11.189 C 34.593 11.547 34.529 11.96 34.276 12.255 L 31.68 15.279 L 35.234 17.079 C 35.582 17.256 35.8 17.612 35.8 18 C 35.8 18.388 35.582 18.744 35.235 18.921 L 31.681 20.721 L 34.277 23.745 C 34.53 24.04 34.594 24.451 34.446 24.812 C 34.298 25.17 33.959 25.415 33.57 25.446 L 29.597 25.747 L 30.838 29.535 C 30.959 29.906 30.862 30.312 30.586 30.586 C 30.391 30.783 30.126 30.889 29.857 30.889 C 29.751 30.889 29.641 30.872 29.536 30.838 L 25.751 29.597 L 25.448 33.57 C 25.417 33.959 25.173 34.298 24.814 34.446 C 24.685 34.499 24.552 34.524 24.418 34.524 C 24.178 34.524 23.938 34.438 23.747 34.277 L 20.723 31.681 L 18.921 35.235 C 18.745 35.582 18.388 35.8 18 35.8 Z"/>
    <path fill="#FFCC4D" d="M 31 18 C 31 25.179 25.179 31 18 31 C 10.821 31 5 25.18 5 18 C 5 10.82 10.821 5 18 5 C 25.179 5 31 10.821 31 18"/>
    <path d="M 18 23.471 C 11.778 23.471 10 21.143 10 22.243 C 10 23.345 13.556 26.223 18 26.223 C 22.444 26.223 26 23.344 26 22.243 C 26 21.143 24.223 23.471 18 23.471 M 26 14.667 C 26 16.14 24.806 17.334 23.333 17.334 C 21.861 17.334 20.667 16.14 20.667 14.667 C 20.667 13.194 21.861 12 23.333 12 C 24.806 12 26 13.193 26 14.667 M 15.333 14.667 C 15.333 16.14 14.138 17.334 12.666 17.334 C 11.194 17.334 9.999 16.14 9.999 14.667 C 9.999 13.194 11.195 12 12.667 12 C 14.139 12 15.333 13.193 15.333 14.667" fill="#F4900C"/>
  </g>
</svg>